<?xml version="1.0" encoding="utf-8"?>
<!-- Generator: Adobe Illustrator 15.0.0, SVG Export Plug-In  -->
<!DOCTYPE svg PUBLIC "-//W3C//DTD SVG 1.1//EN" "http://www.w3.org/Graphics/SVG/1.1/DTD/svg11.dtd" [
	<!ENTITY ns_flows "http://ns.adobe.com/Flows/1.0/">
]>
<svg version="1.1"
	 xmlns="http://www.w3.org/2000/svg" xmlns:xlink="http://www.w3.org/1999/xlink" xmlns:a="http://ns.adobe.com/AdobeSVGViewerExtensions/3.0/"
	 x="0px" y="0px" width="265px" height="52px" viewBox="-3.291 -3.033 265 52"
	 overflow="visible" enable-background="new -3.291 -3.033 265 52" xml:space="preserve">
<defs>
</defs>
<path fill="#2B3033" d="M85.049,26.991c-1.428,5-5.762,8.381-11.857,8.381c-6.952,0-12.571-5.713-12.571-12.809
	c0-7.095,5.619-12.904,12.571-12.904c5.905,0,10.857,3.714,12.048,10.286l-17.333,7.285c1.237,1.666,3.095,2.619,5.237,2.619
	c2.048,0,4.143-0.905,5.191-2.858H85.049z M78.002,17.372c-1.144-1.38-2.858-2.19-4.858-2.19c-3.619,0-6.523,2.858-6.666,7.048
	L78.002,17.372z"/>
<path fill="#2B3033" d="M101.877,16.377c-4-0.715-8.678,0.757-8.678,4.233v14.19h-6.287V20.61c0-6.952,5.48-11.139,13.623-10.139
	L101.877,16.377z"/>
<path fill="#2B3033" d="M115.622,34.801h-6.761l-9.286-24.524h6.572l6.095,18.286l6.143-18.286h6.475L115.622,34.801z"/>
<path fill="#2B3033" d="M131.956,34.801h-6.285V10.277h6.285V34.801z"/>
<path fill="#2B3033" d="M146.765,35.372c-7.381,0-12.667-5.713-12.667-12.809c0-7.095,5.285-12.904,12.667-12.904
	c5.904,0,10.38,3.333,11.81,8.856h-6.714c-0.858-1.666-2.81-3.095-5.096-3.095c-3.477,0-6.286,3.237-6.286,7.19
	c0,3.857,2.81,7.048,6.286,7.048c2.333,0,4.333-1.428,5.143-3.143h6.715C157.193,32.086,152.717,35.372,146.765,35.372z"/>
<path fill="#2B3033" d="M183.433,26.991c-1.428,5-5.761,8.381-11.857,8.381c-6.953,0-12.572-5.713-12.572-12.809
	c0-7.095,5.619-12.904,12.572-12.904c5.905,0,10.856,3.714,12.048,10.286l-17.333,7.285c1.237,1.666,3.095,2.619,5.238,2.619
	c2.047,0,4.142-0.905,5.19-2.858H183.433z M176.385,17.372c-1.144-1.38-2.858-2.19-4.857-2.19c-3.62,0-6.524,2.858-6.667,7.048
	L176.385,17.372z"/>
<path fill="#2B3033" d="M198.047,34.801h-12.904V11.61c0-2.857,1.094-5.571,3.095-7.524c2.046-2.047,4.809-3.142,7.761-3.142
	c6.285,0,10.856,4,10.856,9.761c0,2.81-1.19,5-2.904,6.429c2.809,1.476,4.428,4.191,4.428,7.952
	C208.38,30.991,204.428,34.801,198.047,34.801z M191.428,14.658h5.238c0.381,0,3.856-0.096,3.856-3.667
	c0-2.762-2.143-3.904-4.523-3.904c-2.667,0-4.572,2-4.572,4.522V14.658z M196.999,20.516h-5.571v8.428h5.667
	c2.476,0,4.809-0.904,4.809-4.142C201.904,22.039,200.142,20.516,196.999,20.516z"/>
<path fill="#2B3033" d="M234.143,34.801h-5.952v-2.572c-1.858,2.047-4.524,3.096-7.477,3.096c-6.475,0-11.761-5.714-11.761-12.762
	c0-7.095,5.19-12.904,12.619-12.904c7.381,0,12.571,5.809,12.571,12.904V34.801z M221.571,15.563c-3.476,0-6.286,3-6.286,7.047
	c0,3.905,2.81,6.904,6.286,6.904c3.477,0,6.285-3.096,6.285-6.904C227.856,18.705,225.048,15.563,221.571,15.563z"/>
<path fill="#2B3033" d="M258.619,35.801c0,6.619-4.334,11-10.905,11c-5.381,0-9.809-3.523-10.667-8.571h6.525
	c0.381,1.81,1.999,2.714,4.142,2.714c3.428,0,4.619-2.428,4.619-4.713v-2.858c-1.476,1.238-3.381,2-5.619,2
	c-6,0-9.999-4.332-9.999-10.762V10.277H243V24.61c0,1.382,0.476,4.81,4.572,4.81c2.809,0,4.761-2.048,4.761-4.81V10.277h6.287
	V35.801z"/>
<path fill="#2B3033" d="M59.206,11.586h-6.17c0-2.805-2.338-4.908-6.266-4.908c-3.273,0-6.31,1.26-6.31,3.74
	c0,2.243,2.196,3.038,7.152,4.068c7.713,1.542,12.576,3.458,12.576,10.096c0,6.266-5.237,10.191-13.418,10.191
	c-6.358,0-13.277-3.505-13.277-11.312h6.172c0,3.832,3.832,5.656,7.105,5.656c3.553,0,7.247-1.262,7.247-4.348
	c0-2.057-1.684-3.318-7.667-4.487c-5.983-1.169-12.061-2.946-12.061-9.912c0-5.563,4.908-9.443,12.482-9.443
	C55.326,0.927,59.206,6.442,59.206,11.586z"/>
<path fill="#2B3033" d="M125.623,7.611V4.086c0-1.761,1.428-3.142,3.191-3.142c1.714,0,3.142,1.381,3.142,3.142v3.525H125.623z"/>
<rect x="9.471" y="31.843" fill="#2B3033" width="11.594" height="2.98"/>
<path fill="#2B3033" d="M5.649,34.823v-2.98h-1.33v-6.292c0-0.774,0.627-1.403,1.401-1.403h0.442l1.828-5.815l0.021-0.046
	c0.28-0.658,0.756-1.161,1.308-1.533c0.556-0.366,1.202-0.612,1.917-0.619h7.916c0.716,0.007,1.362,0.253,1.917,0.619
	c0.553,0.373,1.029,0.875,1.308,1.533l0.02,0.045l1.83,5.815h0.653c0.773,0,1.401,0.629,1.401,1.403v6.292h-1.396v2.98l6.06,0.018
	V12.519H0v22.322L5.649,34.823z"/>
<circle fill="#2B3033" cx="22.975" cy="27.808" r="1.584"/>
<path fill="#2B3033" d="M10.03,19.083c0.075-0.155,0.258-0.373,0.493-0.523c0.251-0.174,0.548-0.259,0.713-0.255h7.916
	c0.167-0.004,0.463,0.081,0.715,0.255c0.235,0.15,0.418,0.368,0.493,0.523l1.592,5.064H8.436L10.03,19.083z"/>
<circle fill="#2B3033" cx="7.559" cy="27.808" r="1.584"/>
<rect x="0.022" y="6.255" fill="#2B3033" width="31.01" height="4.134"/>
<rect x="0.022" fill="#2B3033" width="31.01" height="4.134"/>
</svg>
